<svg width="220" height="237" viewBox="0 0 220 237" fill="none" xmlns="http://www.w3.org/2000/svg">
<path d="M216.771 90.5202C221.076 94.8096 221.076 101.764 216.771 106.054L184.14 138.558C179.834 142.847 172.853 142.847 168.547 138.558L115.487 85.702C112.456 82.6835 107.544 82.6835 104.513 85.702L51.453 138.558C47.147 142.847 40.1657 142.847 35.8597 138.558L3.22949 106.054C-1.07649 101.764 -1.0765 94.8096 3.22947 90.5202L82.8559 11.2002C97.8472 -3.73337 122.153 -3.7334 137.144 11.2001L216.771 90.5202Z" fill="black"/>
<path d="M86.5442 136.58C99.4622 123.712 120.406 123.712 133.324 136.58L173.398 176.499C176.428 179.517 176.428 184.411 173.398 187.43L133.324 227.349C120.406 240.217 99.4622 240.217 86.5443 227.349L46.4709 187.43C43.4408 184.411 43.4408 179.517 46.4709 176.499L86.5442 136.58Z" fill="black"/>
</svg>
