<svg width="500" height="500" viewBox="0 0 500 500" fill="none" xmlns="http://www.w3.org/2000/svg">
<rect width="500" height="500" fill="url(#paint0_linear_150_39)"/>
<path d="M356.771 221.52C361.076 225.81 361.076 232.764 356.771 237.054L324.14 269.558C319.834 273.847 312.853 273.847 308.547 269.558L255.487 216.702C252.456 213.683 247.544 213.683 244.513 216.702L191.453 269.558C187.147 273.847 180.166 273.847 175.86 269.558L143.229 237.054C138.924 232.764 138.923 225.81 143.229 221.52L222.856 142.2C237.847 127.267 262.153 127.267 277.144 142.2L356.771 221.52Z" fill="white"/>
<path d="M226.544 267.58C239.462 254.712 260.406 254.712 273.324 267.58L313.398 307.499C316.428 310.517 316.428 315.411 313.398 318.43L273.324 358.349C260.406 371.217 239.462 371.217 226.544 358.349L186.471 318.43C183.441 315.411 183.441 310.517 186.471 307.499L226.544 267.58Z" fill="white"/>
<defs>
<linearGradient id="paint0_linear_150_39" x1="7.30352e-06" y1="376.396" x2="500" y2="123.604" gradientUnits="userSpaceOnUse">
<stop stop-color="#FF6316"/>
<stop offset="1" stop-color="#ED8037"/>
</linearGradient>
</defs>
</svg>
