<svg width="921" height="285" viewBox="0 0 921 285" fill="none" xmlns="http://www.w3.org/2000/svg">
<path d="M216.771 114.52C221.076 118.81 221.076 125.764 216.771 130.054L184.14 162.558C179.834 166.847 172.853 166.847 168.547 162.558L115.487 109.702C112.456 106.684 107.544 106.684 104.513 109.702L51.453 162.558C47.147 166.847 40.1657 166.847 35.8597 162.558L3.22949 130.054C-1.07649 125.764 -1.0765 118.81 3.22947 114.52L82.8559 35.2002C97.8472 20.2666 122.153 20.2666 137.144 35.2001L216.771 114.52Z" fill="url(#paint0_linear_51_79)"/>
<path d="M86.5443 160.58C99.4622 147.712 120.406 147.712 133.324 160.58L173.398 200.499C176.428 203.517 176.428 208.411 173.398 211.43L133.324 251.349C120.406 264.217 99.4622 264.217 86.5443 251.349L46.4709 211.43C43.4408 208.411 43.4408 203.517 46.4709 200.499L86.5443 160.58Z" fill="url(#paint1_linear_51_79)"/>
<path d="M362.857 103.941C362.077 96.645 358.791 90.9642 352.999 86.8985C347.263 82.8328 339.8 80.7999 330.61 80.7999C324.149 80.7999 318.608 81.7746 313.985 83.7239C309.363 85.6732 305.826 88.3187 303.376 91.6603C300.925 95.002 299.672 98.8171 299.616 103.106C299.616 106.67 300.424 109.761 302.039 112.379C303.71 114.996 305.965 117.224 308.806 119.062C311.646 120.844 314.793 122.348 318.246 123.573C321.699 124.798 325.18 125.829 328.689 126.664L344.729 130.674C351.189 132.178 357.399 134.211 363.358 136.773C369.373 139.335 374.748 142.565 379.482 146.464C384.271 150.362 388.059 155.068 390.843 160.582C393.628 166.096 395.02 172.556 395.02 179.964C395.02 189.989 392.459 198.816 387.335 206.446C382.211 214.021 374.803 219.952 365.113 224.241C355.478 228.473 343.81 230.59 330.109 230.59C316.798 230.59 305.241 228.529 295.439 224.408C285.693 220.286 278.062 214.271 272.549 206.363C267.091 198.454 264.139 188.819 263.693 177.457H294.186C294.631 183.417 296.469 188.374 299.7 192.328C302.93 196.282 307.135 199.234 312.314 201.183C317.55 203.132 323.398 204.107 329.858 204.107C336.597 204.107 342.501 203.105 347.569 201.1C352.693 199.039 356.703 196.199 359.599 192.578C362.495 188.903 363.971 184.614 364.027 179.713C363.971 175.257 362.662 171.582 360.1 168.686C357.538 165.734 353.946 163.283 349.323 161.334C344.756 159.329 339.41 157.547 333.283 155.987L313.818 150.975C299.728 147.355 288.589 141.869 280.402 134.517C272.27 127.11 268.205 117.28 268.205 105.027C268.205 94.9463 270.934 86.1188 276.392 78.5443C281.905 70.9699 289.396 65.0942 298.864 60.9171C308.332 56.6843 319.053 54.5679 331.028 54.5679C343.169 54.5679 353.807 56.6843 362.941 60.9171C372.13 65.0942 379.343 70.9142 384.578 78.3772C389.813 85.7846 392.514 94.3058 392.681 103.941H362.857ZM485.391 99.6803V123.072H411.624V99.6803H485.391ZM429.836 68.9371H460.078V189.404C460.078 193.47 460.691 196.588 461.916 198.76C463.197 200.877 464.868 202.325 466.929 203.105C468.989 203.884 471.273 204.274 473.779 204.274C475.673 204.274 477.399 204.135 478.959 203.857C480.574 203.578 481.799 203.327 482.635 203.105L487.731 226.747C486.115 227.304 483.804 227.916 480.797 228.585C477.845 229.253 474.225 229.643 469.936 229.754C462.362 229.977 455.539 228.835 449.469 226.329C443.398 223.767 438.58 219.813 435.016 214.466C431.507 209.12 429.781 202.436 429.836 194.416V68.9371ZM510.684 228V99.6803H540.007V121.067H541.343C543.683 113.66 547.693 107.951 553.373 103.941C559.11 99.8752 565.654 97.8424 573.006 97.8424C574.676 97.8424 576.542 97.9259 578.603 98.093C580.719 98.2044 582.474 98.3993 583.866 98.6778V126.497C582.585 126.052 580.552 125.662 577.767 125.328C575.038 124.938 572.393 124.743 569.831 124.743C564.317 124.743 559.36 125.94 554.961 128.335C550.616 130.674 547.191 133.932 544.685 138.109C542.179 142.286 540.926 147.104 540.926 152.562V228H510.684ZM603.958 228V99.6803H634.2V228H603.958ZM619.162 81.4683C614.372 81.4683 610.251 79.881 606.798 76.7064C603.345 73.4761 601.618 69.6054 601.618 65.0941C601.618 60.5272 603.345 56.6565 606.798 53.4819C610.251 50.2516 614.372 48.6365 619.162 48.6365C624.008 48.6365 628.129 50.2516 631.526 53.4819C634.979 56.6565 636.706 60.5272 636.706 65.0941C636.706 69.6054 634.979 73.4761 631.526 76.7064C628.129 79.881 624.008 81.4683 619.162 81.4683ZM779.917 99.6803L734.22 228H700.803L655.106 99.6803H687.353L716.843 195.001H718.18L747.753 99.6803H779.917ZM853.287 230.506C840.422 230.506 829.311 227.833 819.954 222.486C810.653 217.084 803.496 209.454 798.484 199.596C793.471 189.682 790.965 178.014 790.965 164.592C790.965 151.392 793.471 139.808 798.484 129.839C803.552 119.814 810.625 112.017 819.703 106.447C828.782 100.822 839.447 98.0095 851.7 98.0095C859.608 98.0095 867.071 99.2905 874.089 101.852C881.162 104.359 887.4 108.257 892.802 113.548C898.26 118.839 902.549 125.578 905.668 133.765C908.787 141.897 910.346 151.587 910.346 162.838V172.111H805.167V151.727H881.357C881.301 145.934 880.048 140.783 877.598 136.271C875.147 131.705 871.722 128.112 867.322 125.495C862.978 122.877 857.91 121.568 852.118 121.568C845.936 121.568 840.505 123.072 835.827 126.079C831.149 129.031 827.501 132.93 824.883 137.775C822.321 142.565 821.012 147.828 820.957 153.565V171.359C820.957 178.822 822.321 185.227 825.05 190.573C827.779 195.864 831.594 199.93 836.495 202.77C841.396 205.555 847.133 206.948 853.705 206.948C858.105 206.948 862.087 206.335 865.651 205.11C869.216 203.829 872.307 201.963 874.924 199.512C877.542 197.062 879.519 194.026 880.856 190.406L909.093 193.581C907.311 201.044 903.913 207.56 898.901 213.13C893.944 218.643 887.595 222.932 879.853 225.995C872.112 229.002 863.256 230.506 853.287 230.506Z" fill="white"/>
<defs>
<linearGradient id="paint0_linear_51_79" x1="-1.58168e-06" y1="199.545" x2="220" y2="85.4547" gradientUnits="userSpaceOnUse">
<stop stop-color="#FF6316"/>
<stop offset="1" stop-color="#ED8037"/>
</linearGradient>
<linearGradient id="paint1_linear_51_79" x1="-1.58168e-06" y1="199.545" x2="220" y2="85.4547" gradientUnits="userSpaceOnUse">
<stop stop-color="#FF6316"/>
<stop offset="1" stop-color="#ED8037"/>
</linearGradient>
</defs>
</svg>
